<svg xmlns="http://www.w3.org/2000/svg" role="img"
  viewBox="0 0 24 24"
  fill="#fff"
>
  <defs>
    <mask id="holes" fill="#000">
      <circle cx="12" cy="12" r="12" fill="#fff" />
      <circle cx="12" cy="12" r="11" />

      <g fill="#fff">
        <circle cx="26" cy="12" r="5" />
        <circle cx="19" cy="24" r="5" />
        <circle cx="5" cy="24" r="5" />
        <circle cx="-2" cy="12" r="5" />
        <circle cx="5" cy="0" r="5" />
        <circle cx="19" cy="0" r="5" />
      </g>

      <circle cx="26" cy="12" r="4" />
      <circle cx="19" cy="24" r="4" />
      <circle cx="5" cy="24" r="4" />
      <circle cx="-2" cy="12" r="4" />
      <circle cx="5" cy="0" r="4" />
      <circle cx="19" cy="0" r="4" />
    </mask>
  </defs>

  <g mask="url(#holes)">
    <circle cx="12" cy="12" r="12" fill="#fff" />
  </g>

  <circle cx="12" cy="4" r="2.5" />
      <circle cx="19" cy="8" r="2.5" />
      <circle cx="19" cy="16" r="2.5" />
      <circle cx="12" cy="20" r="2.5" />
      <circle cx="5" cy="16" r="2.5" />
      <circle cx="5" cy="8" r="2.5" />

      <line x1="12" y1="4" x2="19" y2="8" stroke="#fff" />
      <line x1="19" y1="8" x2="19" y2="16" stroke="#fff" />
      <line x1="19" y1="16" x2="12" y2="20" stroke="#fff" />
      <line x1="12" y1="20" x2="5" y2="16" stroke="#fff" />
      <line x1="5" y1="16" x2="5" y2="8" stroke="#fff" />
      <line x1="5" y1="8" x2="12" y2="4" stroke="#fff" />

  <!-- <circle cx="12" cy="12" r="1" /> -->
</svg>
